<svg width="165" height="56" viewBox="0 0 165 56" fill="none" xmlns="http://www.w3.org/2000/svg">
<g clip-path="url(#clip0_1_1855)">
<path fill-rule="evenodd" clip-rule="evenodd" d="M58.0144 -2.3868C59.3032 -1.09807 59.3032 0.991378 58.0144 2.28011L43.0621 17.2324C41.7734 18.5211 39.6839 18.5211 38.3952 17.2324C37.1064 15.9437 37.1064 13.8542 38.3952 12.5655L53.3475 -2.3868C54.6362 -3.67553 56.7257 -3.67553 58.0144 -2.3868Z" fill="#262626"/>
<path fill-rule="evenodd" clip-rule="evenodd" d="M35.7097 19.9179C36.9985 21.2066 36.9985 23.2961 35.7098 24.5848L31.1881 29.1065C29.8993 30.3952 27.8099 30.3952 26.5211 29.1065C25.2324 27.8178 25.2324 25.7283 26.5211 24.4396L31.0428 19.9179C32.3316 18.6292 34.421 18.6292 35.7097 19.9179Z" fill="#262626"/>
<path fill-rule="evenodd" clip-rule="evenodd" d="M23.8347 31.7924C25.1235 33.0811 25.1235 35.1706 23.8347 36.4593L8.8824 51.4116C7.59367 52.7003 5.50421 52.7003 4.21548 51.4116C2.92674 50.1229 2.92674 48.0334 4.21548 46.7447L19.1678 31.7924C20.4566 30.5037 22.546 30.5037 23.8347 31.7924Z" fill="#262626"/>
<path fill-rule="evenodd" clip-rule="evenodd" d="M57.9204 14.6069C59.2092 15.8956 59.2092 17.985 57.9204 19.2738L42.9681 34.226C41.6794 35.5148 39.5899 35.5148 38.3012 34.226C37.0124 32.9373 37.0124 30.8479 38.3012 29.5591L53.2535 14.6069C54.5423 13.3181 56.6317 13.3181 57.9204 14.6069Z" fill="#262626"/>
<path fill-rule="evenodd" clip-rule="evenodd" d="M35.6118 36.912C36.9006 38.2008 36.9006 40.2902 35.6118 41.5789L31.0902 46.1006C29.8014 47.3894 27.712 47.3894 26.4232 46.1006C25.1345 44.8119 25.1345 42.7224 26.4232 41.4337L30.9449 36.912C32.2337 35.6233 34.3231 35.6233 35.6118 36.912Z" fill="#262626"/>
<path fill-rule="evenodd" clip-rule="evenodd" d="M23.7388 48.7865C25.0275 50.0753 25.0275 52.1647 23.7388 53.4534L8.78646 68.4057C7.49772 69.6945 5.40827 69.6945 4.11953 68.4057C2.83079 67.117 2.83079 65.0276 4.11953 63.7388L19.0719 48.7865C20.3606 47.4978 22.4501 47.4978 23.7388 48.7865Z" fill="#262626"/>
<path fill-rule="evenodd" clip-rule="evenodd" d="M36.5984 2.13127C37.8872 3.42 37.8872 5.50944 36.5984 6.79818L21.6461 21.7505C20.3573 23.0392 18.2679 23.0392 16.9791 21.7505C15.6904 20.4617 15.6904 18.3723 16.9791 17.0835L31.9315 2.13127C33.2202 0.842536 35.3097 0.842536 36.5984 2.13127Z" fill="#262626"/>
<path fill-rule="evenodd" clip-rule="evenodd" d="M14.2937 24.436C15.5825 25.7247 15.5825 27.8141 14.2937 29.1029L9.77204 33.6245C8.4833 34.9133 6.39385 34.9133 5.10511 33.6246C3.81637 32.3358 3.81637 30.2464 5.10511 28.9576L9.62681 24.436C10.9155 23.1472 13.005 23.1472 14.2937 24.436Z" fill="#262626"/>
<path fill-rule="evenodd" clip-rule="evenodd" d="M2.41873 36.3105C3.70747 37.5992 3.70747 39.6886 2.41873 40.9774L-12.5336 55.9297C-13.8223 57.2184 -15.9118 57.2184 -17.2005 55.9297C-18.4893 54.6409 -18.4893 52.5515 -17.2005 51.2627L-2.24819 36.3105C-0.959457 35.0217 1.13 35.0217 2.41873 36.3105Z" fill="#262626"/>
<path fill-rule="evenodd" clip-rule="evenodd" d="M24.5515 -2.71834C25.8403 -1.42961 25.8403 0.659836 24.5515 1.94857L20.0298 6.47025C18.7411 7.75898 16.6517 7.75898 15.3629 6.47025C14.0742 5.18152 14.0742 3.09208 15.3629 1.80334L19.8846 -2.71834C21.1734 -4.00707 23.2628 -4.00707 24.5515 -2.71834Z" fill="#262626"/>
<path fill-rule="evenodd" clip-rule="evenodd" d="M12.6785 9.15617C13.9672 10.4449 13.9672 12.5343 12.6785 13.8231L-2.27385 28.7754C-3.56258 30.0641 -5.65204 30.0641 -6.94077 28.7754C-8.22951 27.4866 -8.22951 25.3972 -6.94077 24.1085L8.01157 9.15617C9.30031 7.86744 11.3898 7.86744 12.6785 9.15617Z" fill="#262626"/>
<path fill-rule="evenodd" clip-rule="evenodd" d="M56.1629 33.2607C57.4516 34.5494 57.4516 36.6388 56.1629 37.9276L51.6412 42.4493C50.3524 43.738 48.263 43.738 46.9742 42.4493C45.6855 41.1605 45.6855 39.0711 46.9742 37.7823L51.4959 33.2607C52.7847 31.9719 54.8741 31.9719 56.1629 33.2607Z" fill="#262626"/>
<path fill-rule="evenodd" clip-rule="evenodd" d="M44.2859 45.1352C45.5747 46.4239 45.5747 48.5134 44.2859 49.8021L29.3336 64.7544C28.0448 66.0431 25.9554 66.0431 24.6666 64.7544C23.3779 63.4656 23.3779 61.3762 24.6666 60.0875L39.619 45.1352C40.9077 43.8464 42.9972 43.8464 44.2859 45.1352Z" fill="#262626"/>
</g>
<path d="M72.2334 40.2947V16.1792H77.3696V36.072H87.1946V40.2947H72.2334Z" fill="#262626"/>
<path d="M113.406 28.2039C113.406 30.0624 113.174 31.7558 112.71 33.2844C112.246 34.8019 111.539 36.1105 110.589 37.2101C109.65 38.3098 108.457 39.1565 107.01 39.7503C105.563 40.3332 103.851 40.6246 101.874 40.6246C99.8971 40.6246 98.185 40.3332 96.738 39.7503C95.2911 39.1565 94.0926 38.3098 93.1427 37.2101C92.2038 36.1105 91.5024 34.7964 91.0385 33.2679C90.5746 31.7393 90.3426 30.0404 90.3426 28.1709C90.3426 25.6747 90.7513 23.5029 91.5687 21.6555C92.3971 19.7971 93.6674 18.3565 95.3794 17.3338C97.0915 16.3111 99.2675 15.7998 101.907 15.7998C104.536 15.7998 106.696 16.3111 108.386 17.3338C110.087 18.3565 111.346 19.7971 112.163 21.6555C112.992 23.5139 113.406 25.6967 113.406 28.2039ZM95.7274 28.2039C95.7274 29.8864 95.9372 31.338 96.357 32.5586C96.7877 33.7682 97.456 34.7029 98.3617 35.3627C99.2675 36.0115 100.438 36.3359 101.874 36.3359C103.332 36.3359 104.514 36.0115 105.42 35.3627C106.326 34.7029 106.983 33.7682 107.391 32.5586C107.811 31.338 108.021 29.8864 108.021 28.2039C108.021 25.6747 107.546 23.6843 106.596 22.2328C105.646 20.7813 104.083 20.0555 101.907 20.0555C100.46 20.0555 99.2785 20.3854 98.3617 21.0452C97.456 21.694 96.7877 22.6287 96.357 23.8493C95.9372 25.0589 95.7274 26.5105 95.7274 28.2039Z" fill="#262626"/>
<path d="M127.621 26.7524H137.231V39.2555C135.961 39.6734 134.641 40.0088 133.271 40.2617C131.902 40.5036 130.35 40.6246 128.616 40.6246C126.208 40.6246 124.164 40.1517 122.485 39.206C120.806 38.2603 119.531 36.8637 118.658 35.0163C117.785 33.1689 117.349 30.8981 117.349 28.2039C117.349 25.6747 117.835 23.4864 118.807 21.639C119.79 19.7916 121.221 18.362 123.098 17.3503C124.987 16.3386 127.29 15.8328 130.007 15.8328C131.289 15.8328 132.553 15.9703 133.801 16.2452C135.05 16.5201 136.182 16.8775 137.198 17.3173L135.491 21.4081C134.751 21.0342 133.906 20.7208 132.957 20.4678C132.007 20.2149 131.012 20.0885 129.974 20.0885C128.483 20.0885 127.185 20.4294 126.081 21.1111C124.987 21.7929 124.137 22.7496 123.529 23.9813C122.933 25.2019 122.634 26.6424 122.634 28.3029C122.634 29.8754 122.85 31.272 123.281 32.4926C123.711 33.7022 124.391 34.6534 125.318 35.3462C126.246 36.028 127.456 36.3689 128.947 36.3689C129.676 36.3689 130.289 36.3359 130.786 36.2699C131.294 36.1929 131.769 36.116 132.211 36.039V31.0081H127.621V26.7524Z" fill="#262626"/>
<path d="M165 28.2039C165 30.0624 164.768 31.7558 164.304 33.2844C163.84 34.8019 163.133 36.1105 162.183 37.2101C161.244 38.3098 160.051 39.1565 158.604 39.7503C157.157 40.3332 155.445 40.6246 153.468 40.6246C151.491 40.6246 149.779 40.3332 148.332 39.7503C146.885 39.1565 145.687 38.3098 144.737 37.2101C143.798 36.1105 143.096 34.7964 142.632 33.2679C142.169 31.7393 141.937 30.0404 141.937 28.1709C141.937 25.6747 142.345 23.5029 143.163 21.6555C143.991 19.7971 145.261 18.3565 146.973 17.3338C148.685 16.3111 150.861 15.7998 153.501 15.7998C156.13 15.7998 158.29 16.3111 159.98 17.3338C161.681 18.3565 162.94 19.7971 163.757 21.6555C164.586 23.5139 165 25.6967 165 28.2039ZM147.321 28.2039C147.321 29.8864 147.531 31.338 147.951 32.5586C148.382 33.7682 149.05 34.7029 149.956 35.3627C150.861 36.0115 152.032 36.3359 153.468 36.3359C154.926 36.3359 156.108 36.0115 157.014 35.3627C157.92 34.7029 158.577 33.7682 158.985 32.5586C159.405 31.338 159.615 29.8864 159.615 28.2039C159.615 25.6747 159.14 23.6843 158.19 22.2328C157.24 20.7813 155.677 20.0555 153.501 20.0555C152.054 20.0555 150.872 20.3854 149.956 21.0452C149.05 21.694 148.382 22.6287 147.951 23.8493C147.531 25.0589 147.321 26.5105 147.321 28.2039Z" fill="#262626"/>
<defs>
<clipPath id="clip0_1_1855">
<rect y="0.626953" width="55.2452" height="55" rx="27.5" fill="white"/>
</clipPath>
</defs>
</svg>
