<svg width="165" height="55" viewBox="0 0 165 55" fill="none" xmlns="http://www.w3.org/2000/svg">
<g clip-path="url(#clip0_1_1773)">
<path fill-rule="evenodd" clip-rule="evenodd" d="M58.0144 -3.01326C59.3032 -1.72453 59.3032 0.364913 58.0144 1.65364L43.0621 16.6059C41.7734 17.8947 39.6839 17.8947 38.3952 16.6059C37.1064 15.3172 37.1064 13.2277 38.3952 11.939L53.3475 -3.01326C54.6362 -4.30199 56.7257 -4.302 58.0144 -3.01326Z" fill="white"/>
<path fill-rule="evenodd" clip-rule="evenodd" d="M35.7097 19.2914C36.9985 20.5802 36.9985 22.6696 35.7098 23.9583L31.1881 28.48C29.8993 29.7687 27.8099 29.7687 26.5211 28.48C25.2324 27.1913 25.2324 25.1018 26.5211 23.8131L31.0428 19.2914C32.3316 18.0027 34.421 18.0027 35.7097 19.2914Z" fill="white"/>
<path fill-rule="evenodd" clip-rule="evenodd" d="M23.8347 31.1659C25.1235 32.4547 25.1235 34.5441 23.8347 35.8328L8.8824 50.7851C7.59367 52.0739 5.50421 52.0739 4.21548 50.7851C2.92674 49.4964 2.92674 47.4069 4.21548 46.1182L19.1678 31.1659C20.4566 29.8772 22.546 29.8772 23.8347 31.1659Z" fill="white"/>
<path fill-rule="evenodd" clip-rule="evenodd" d="M57.9204 13.98C59.2092 15.2688 59.2092 17.3582 57.9204 18.6469L42.9681 33.5992C41.6794 34.8879 39.5899 34.8879 38.3012 33.5992C37.0124 32.3105 37.0124 30.221 38.3012 28.9323L53.2535 13.98C54.5423 12.6913 56.6317 12.6913 57.9204 13.98Z" fill="white"/>
<path fill-rule="evenodd" clip-rule="evenodd" d="M35.6118 36.2852C36.9006 37.5739 36.9006 39.6634 35.6118 40.9521L31.0902 45.4738C29.8014 46.7625 27.712 46.7625 26.4232 45.4738C25.1345 44.1851 25.1345 42.0956 26.4232 40.8069L30.9449 36.2852C32.2337 34.9965 34.3231 34.9965 35.6118 36.2852Z" fill="white"/>
<path fill-rule="evenodd" clip-rule="evenodd" d="M23.7388 48.1597C25.0275 49.4484 25.0275 51.5379 23.7388 52.8266L8.78646 67.7789C7.49772 69.0676 5.40827 69.0676 4.11953 67.7789C2.83079 66.4902 2.83079 64.4007 4.11953 63.112L19.0719 48.1597C20.3606 46.871 22.4501 46.871 23.7388 48.1597Z" fill="white"/>
<path fill-rule="evenodd" clip-rule="evenodd" d="M36.5984 1.5048C37.8872 2.79353 37.8872 4.88298 36.5984 6.17171L21.6461 21.124C20.3573 22.4127 18.2679 22.4127 16.9791 21.124C15.6904 19.8353 15.6904 17.7458 16.9791 16.4571L31.9315 1.5048C33.2202 0.216072 35.3097 0.216071 36.5984 1.5048Z" fill="white"/>
<path fill-rule="evenodd" clip-rule="evenodd" d="M14.2937 23.8095C15.5825 25.0982 15.5825 27.1877 14.2937 28.4764L9.77204 32.9981C8.4833 34.2868 6.39385 34.2868 5.10511 32.9981C3.81637 31.7094 3.81637 29.6199 5.10511 28.3312L9.62681 23.8095C10.9155 22.5208 13.005 22.5208 14.2937 23.8095Z" fill="white"/>
<path fill-rule="evenodd" clip-rule="evenodd" d="M2.41873 35.684C3.70747 36.9727 3.70747 39.0622 2.41873 40.3509L-12.5336 55.3032C-13.8223 56.5919 -15.9118 56.5919 -17.2005 55.3032C-18.4893 54.0145 -18.4893 51.925 -17.2005 50.6363L-2.24819 35.684C-0.959457 34.3953 1.13 34.3953 2.41873 35.684Z" fill="white"/>
<path fill-rule="evenodd" clip-rule="evenodd" d="M24.5513 -3.34517C25.84 -2.05644 25.84 0.0330049 24.5513 1.32174L20.0296 5.84342C18.7409 7.13215 16.6514 7.13215 15.3627 5.84342C14.0739 4.55469 14.0739 2.46525 15.3627 1.17651L19.8844 -3.34517C21.1731 -4.6339 23.2626 -4.6339 24.5513 -3.34517Z" fill="white"/>
<path fill-rule="evenodd" clip-rule="evenodd" d="M12.6783 8.52934C13.967 9.81807 13.967 11.9075 12.6783 13.1962L-2.27409 28.1485C-3.56283 29.4373 -5.65228 29.4373 -6.94102 28.1485C-8.22975 26.8598 -8.22975 24.7704 -6.94102 23.4816L8.01133 8.52934C9.30006 7.24061 11.3895 7.24061 12.6783 8.52934Z" fill="white"/>
<path fill-rule="evenodd" clip-rule="evenodd" d="M56.1629 32.6342C57.4516 33.9229 57.4516 36.0124 56.1629 37.3011L51.6412 41.8228C50.3524 43.1115 48.263 43.1115 46.9742 41.8228C45.6855 40.5341 45.6855 38.4446 46.9742 37.1559L51.4959 32.6342C52.7847 31.3455 54.8741 31.3455 56.1629 32.6342Z" fill="white"/>
<path fill-rule="evenodd" clip-rule="evenodd" d="M44.2859 44.5087C45.5747 45.7974 45.5747 47.8869 44.2859 49.1756L29.3336 64.1279C28.0448 65.4166 25.9554 65.4166 24.6666 64.1279C23.3779 62.8392 23.3779 60.7497 24.6666 59.461L39.619 44.5087C40.9077 43.22 42.9972 43.22 44.2859 44.5087Z" fill="white"/>
</g>
<path d="M72.2334 39.6677V15.5522H77.3696V35.445H87.1946V39.6677H72.2334Z" fill="white"/>
<path d="M113.406 27.577C113.406 29.4354 113.174 31.1289 112.71 32.6574C112.246 34.1749 111.539 35.4835 110.589 36.5832C109.65 37.6828 108.457 38.5296 107.01 39.1234C105.563 39.7062 103.851 39.9976 101.874 39.9976C99.8971 39.9976 98.185 39.7062 96.738 39.1234C95.2911 38.5296 94.0926 37.6828 93.1427 36.5832C92.2038 35.4835 91.5024 34.1694 91.0385 32.6409C90.5746 31.1124 90.3426 29.4134 90.3426 27.544C90.3426 25.0478 90.7513 22.8759 91.5687 21.0285C92.3971 19.1701 93.6674 17.7296 95.3794 16.7069C97.0915 15.6842 99.2675 15.1729 101.907 15.1729C104.536 15.1729 106.696 15.6842 108.386 16.7069C110.087 17.7296 111.346 19.1701 112.163 21.0285C112.992 22.8869 113.406 25.0698 113.406 27.577ZM95.7274 27.577C95.7274 29.2595 95.9372 30.711 96.357 31.9316C96.7877 33.1412 97.456 34.076 98.3617 34.7358C99.2675 35.3845 100.438 35.7089 101.874 35.7089C103.332 35.7089 104.514 35.3845 105.42 34.7358C106.326 34.076 106.983 33.1412 107.391 31.9316C107.811 30.711 108.021 29.2595 108.021 27.577C108.021 25.0478 107.546 23.0574 106.596 21.6058C105.646 20.1543 104.083 19.4285 101.907 19.4285C100.46 19.4285 99.2785 19.7584 98.3617 20.4182C97.456 21.067 96.7877 22.0017 96.357 23.2223C95.9372 24.432 95.7274 25.8835 95.7274 27.577Z" fill="white"/>
<path d="M127.621 26.1254H137.231V38.6285C135.961 39.0464 134.641 39.3818 133.271 39.6347C131.902 39.8766 130.35 39.9976 128.616 39.9976C126.208 39.9976 124.164 39.5248 122.485 38.5791C120.806 37.6333 119.531 36.2368 118.658 34.3894C117.785 32.5419 117.349 30.2711 117.349 27.577C117.349 25.0478 117.835 22.8595 118.807 21.012C119.79 19.1646 121.221 17.7351 123.098 16.7234C124.987 15.7117 127.29 15.2058 130.007 15.2058C131.289 15.2058 132.553 15.3433 133.801 15.6182C135.05 15.8931 136.182 16.2505 137.198 16.6904L135.491 20.7811C134.751 20.4072 133.906 20.0938 132.957 19.8409C132.007 19.588 131.012 19.4615 129.974 19.4615C128.483 19.4615 127.185 19.8024 126.081 20.4842C124.987 21.166 124.137 22.1227 123.529 23.3543C122.933 24.5749 122.634 26.0155 122.634 27.676C122.634 29.2485 122.85 30.645 123.281 31.8656C123.711 33.0753 124.391 34.0265 125.318 34.7193C126.246 35.401 127.456 35.7419 128.947 35.7419C129.676 35.7419 130.289 35.7089 130.786 35.643C131.294 35.566 131.769 35.489 132.211 35.412V30.3811H127.621V26.1254Z" fill="white"/>
<path d="M165 27.577C165 29.4354 164.768 31.1289 164.304 32.6574C163.84 34.1749 163.133 35.4835 162.183 36.5832C161.244 37.6828 160.051 38.5296 158.604 39.1234C157.157 39.7062 155.445 39.9976 153.468 39.9976C151.491 39.9976 149.779 39.7062 148.332 39.1234C146.885 38.5296 145.687 37.6828 144.737 36.5832C143.798 35.4835 143.096 34.1694 142.632 32.6409C142.169 31.1124 141.937 29.4134 141.937 27.544C141.937 25.0478 142.345 22.8759 143.163 21.0285C143.991 19.1701 145.261 17.7296 146.973 16.7069C148.685 15.6842 150.861 15.1729 153.501 15.1729C156.13 15.1729 158.29 15.6842 159.98 16.7069C161.681 17.7296 162.94 19.1701 163.757 21.0285C164.586 22.8869 165 25.0698 165 27.577ZM147.321 27.577C147.321 29.2595 147.531 30.711 147.951 31.9316C148.382 33.1412 149.05 34.076 149.956 34.7358C150.861 35.3845 152.032 35.7089 153.468 35.7089C154.926 35.7089 156.108 35.3845 157.014 34.7358C157.92 34.076 158.577 33.1412 158.985 31.9316C159.405 30.711 159.615 29.2595 159.615 27.577C159.615 25.0478 159.14 23.0574 158.19 21.6058C157.24 20.1543 155.677 19.4285 153.501 19.4285C152.054 19.4285 150.872 19.7584 149.956 20.4182C149.05 21.067 148.382 22.0017 147.951 23.2223C147.531 24.432 147.321 25.8835 147.321 27.577Z" fill="white"/>
<defs>
<clipPath id="clip0_1_1773">
<rect width="55.2452" height="55" rx="27.5" fill="white"/>
</clipPath>
</defs>
</svg>
